<svg width="72" height="72" viewBox="0 0 72 72" fill="none" xmlns="http://www.w3.org/2000/svg">
<path d="M28.5 48.1875C31.0888 48.1875 33.1875 46.0888 33.1875 43.5C33.1875 40.9112 31.0888 38.8125 28.5 38.8125C25.9112 38.8125 23.8125 40.9112 23.8125 43.5C23.8125 46.0888 25.9112 48.1875 28.5 48.1875Z" stroke="white" style="stroke:white;stroke:white;stroke-opacity:1;" stroke-width="1.5" stroke-linecap="round" stroke-linejoin="round"/>
<path d="M33.1875 28.5003V25.6878C33.1875 25.1905 32.99 24.7136 32.6383 24.362C32.2867 24.0104 31.8098 23.8128 31.3125 23.8128H29.1C28.6587 23.8048 28.2287 23.9527 27.8857 24.2305C27.5428 24.5083 27.3088 24.8982 27.225 25.3316L23.9062 42.5628M31.3125 33.1878H40.6875M33.1875 37.8753V43.5003" stroke="white" style="stroke:white;stroke:white;stroke-opacity:1;" stroke-width="1.5" stroke-linecap="round" stroke-linejoin="round"/>
<path d="M43.5 48.1875C46.0888 48.1875 48.1875 46.0888 48.1875 43.5C48.1875 40.9112 46.0888 38.8125 43.5 38.8125C40.9112 38.8125 38.8125 40.9112 38.8125 43.5C38.8125 46.0888 40.9112 48.1875 43.5 48.1875Z" stroke="white" style="stroke:white;stroke:white;stroke-opacity:1;" stroke-width="1.5" stroke-linecap="round" stroke-linejoin="round"/>
<path d="M38.8125 28.5003V25.6878C38.8125 25.1905 39.01 24.7136 39.3617 24.362C39.7133 24.0104 40.1902 23.8128 40.6875 23.8128H42.9C43.3413 23.8048 43.7713 23.9527 44.1143 24.2305C44.4572 24.5083 44.6912 24.8982 44.775 25.3316L48.1313 42.5628M38.8125 37.8753V43.5003" stroke="white" style="stroke:white;stroke:white;stroke-opacity:1;" stroke-width="1.5" stroke-linecap="round" stroke-linejoin="round"/>
<rect x="0.75" y="0.75" width="70.5" height="70.5" rx="29.25" stroke="white" style="stroke:white;stroke:white;stroke-opacity:1;" stroke-width="1.5"/>
</svg>
