<svg width="72" height="73" viewBox="0 0 72 73" fill="none" xmlns="http://www.w3.org/2000/svg">
<path d="M45.9204 30.5769C45.9204 27.9458 44.8751 25.4224 43.0147 23.5619C41.1542 21.7015 38.6308 20.6562 35.9997 20.6562C33.3686 20.6562 30.8453 21.7015 28.9848 23.5619C27.1243 25.4224 26.0791 27.9458 26.0791 30.5769V34.6394H45.9204V42.4231C45.9204 45.0542 44.8751 47.5776 43.0147 49.4381C41.1542 51.2985 38.6308 52.3437 35.9997 52.3438C33.3686 52.3437 30.8453 51.2985 28.9848 49.4381C27.1243 47.5776 26.0791 45.0542 26.0791 42.4231V40.3594" stroke="white" style="stroke:white;stroke:white;stroke-opacity:1;" stroke-width="1.5" stroke-linecap="round" stroke-linejoin="round"/>
<rect x="0.75" y="1.25" width="70.5" height="70.5" rx="29.25" stroke="white" style="stroke:white;stroke:white;stroke-opacity:1;" stroke-width="1.5"/>
</svg>
