<svg width="72" height="72" viewBox="0 0 72 72" fill="none" xmlns="http://www.w3.org/2000/svg">
<g clip-path="url(#clip0_1165_39892)">
<path d="M36.1005 31.4025V51.338M36.1005 51.338L40.701 46.7375M36.1005 51.338L31.5 46.7375M36.1005 26.802C35.2871 26.802 34.507 26.4788 33.9318 25.9037C33.3566 25.3285 33.0335 24.5484 33.0335 23.735C33.0335 22.9215 33.3566 22.1414 33.9318 21.5663C34.507 20.9911 35.2871 20.668 36.1005 20.668C36.9139 20.668 37.694 20.9911 38.2692 21.5663C38.8444 22.1414 39.1675 22.9215 39.1675 23.735C39.1675 24.5484 38.8444 25.3285 38.2692 25.9037C37.694 26.4788 36.9139 26.802 36.1005 26.802Z" stroke="white" style="stroke:white;stroke:white;stroke-opacity:1;" stroke-width="1.5" stroke-linecap="round" stroke-linejoin="round"/>
</g>
<rect x="0.75" y="0.75" width="70.5" height="70.5" rx="29.25" stroke="white" style="stroke:white;stroke:white;stroke-opacity:1;" stroke-width="1.5"/>
<defs>
<clipPath id="clip0_1165_39892">
<rect width="11" height="34" fill="white" style="fill:white;fill:white;fill-opacity:1;" transform="translate(30.5 19)"/>
</clipPath>
</defs>
</svg>
