<svg width="72" height="72" viewBox="0 0 72 72" fill="none" xmlns="http://www.w3.org/2000/svg">
<path d="M24.5968 47.4035C26.1094 48.9173 28.5455 48.9173 33.4163 48.9173H38.583C43.4539 48.9173 45.89 48.9173 47.4025 47.4035C48.9163 45.8909 48.9163 43.4549 48.9163 38.584C48.9163 37.0727 48.9163 35.7966 48.8711 34.709M47.4025 29.7645C45.89 28.2507 43.4539 28.2507 38.583 28.2507H33.4163C28.5455 28.2507 26.1094 28.2507 24.5968 29.7645C23.083 31.277 23.083 33.7131 23.083 38.584C23.083 40.0952 23.083 41.3714 23.1282 42.459M35.9997 23.084C38.4358 23.084 39.6525 23.084 40.4094 23.8409C41.1663 24.5978 41.1663 25.8146 41.1663 28.2507M31.5899 23.8409C30.833 24.5978 30.833 25.8146 30.833 28.2507" stroke="white" style="stroke:white;stroke:white;stroke-opacity:1;" stroke-width="1.5" stroke-linecap="round"/>
<path d="M35.9993 42.8898C37.4266 42.8898 38.5827 41.9262 38.5827 40.7378C38.5827 39.5495 37.4266 38.5846 35.9993 38.5846C34.5721 38.5846 33.416 37.6211 33.416 36.4314C33.416 35.2431 34.5721 34.2795 35.9993 34.2795M35.9993 42.8898C34.5721 42.8898 33.416 41.9262 33.416 40.7378M35.9993 42.8898V43.7513M35.9993 34.2795V33.418M35.9993 34.2795C37.4266 34.2795 38.5827 35.2431 38.5827 36.4314" stroke="white" style="stroke:white;stroke:white;stroke-opacity:1;" stroke-width="1.5" stroke-linecap="round"/>
<rect x="0.75" y="0.75" width="70.5" height="70.5" rx="29.25" stroke="white" style="stroke:white;stroke:white;stroke-opacity:1;" stroke-width="1.5"/>
</svg>
