<svg width="72" height="72" viewBox="0 0 72 72" fill="none" xmlns="http://www.w3.org/2000/svg">
<path fill-rule="evenodd" clip-rule="evenodd" d="M31.8109 17.0273H39.0458C39.2571 17.0273 39.4283 17.1986 39.4283 17.4099V22.6448C39.4283 22.8561 39.2571 23.0273 39.0458 23.0273H31.8109C31.5996 23.0273 31.4283 22.8561 31.4283 22.6448V17.4099C31.4283 17.1986 31.5996 17.0273 31.8109 17.0273ZM29.9283 17.4099C29.9283 16.3702 30.7712 15.5273 31.8109 15.5273H39.0458C40.0855 15.5273 40.9283 16.3702 40.9283 17.4099V22.6448C40.9283 23.6845 40.0855 24.5273 39.0458 24.5273H31.8109C30.7712 24.5273 29.9283 23.6845 29.9283 22.6448V17.4099ZM32.9229 27.7213C32.5087 27.7213 32.1729 28.0571 32.1729 28.4713V30.2102C31.5684 30.4127 30.9986 30.6932 30.4747 31.0396L28.8801 29.9665C28.7115 29.8531 28.5042 29.813 28.3055 29.8552C28.1068 29.8974 27.9337 30.0184 27.8259 30.1905L26.1562 32.8545C25.9412 33.1975 26.0372 33.6491 26.373 33.8751L27.5733 34.6828C27.3596 35.2446 27.2087 35.8387 27.1292 36.4555L25.5522 36.7145C25.1466 36.7811 24.8702 37.1618 24.9324 37.568L25.4124 40.7054C25.4427 40.9034 25.551 41.0811 25.7131 41.1988C25.8752 41.3165 26.0777 41.3645 26.2754 41.332L27.9308 41.0601C28.0593 41.3086 28.2007 41.5491 28.3541 41.7803L27.2606 42.9725C26.9876 43.2702 26.9993 43.7305 27.2871 44.0139L29.5092 46.2022C29.6543 46.345 29.8511 46.4227 30.0545 46.4175C30.258 46.4124 30.4506 46.3247 30.5882 46.1747L31.9749 44.6629C32.0405 44.687 32.1065 44.7102 32.1729 44.7324V46.4712C32.1729 46.8854 32.5086 47.2212 32.9229 47.2212H35.9885C36.4027 47.2212 36.7385 46.8854 36.7385 46.4712V44.7329C36.8668 44.69 36.9935 44.6435 37.1186 44.5937L38.5688 46.1747C38.7064 46.3247 38.899 46.4124 39.1024 46.4175C39.3059 46.4227 39.5027 46.345 39.6477 46.2022L41.8699 44.0139C42.1577 43.7305 42.1694 43.2702 41.8964 42.9725L40.6597 41.6242C40.7595 41.4656 40.8537 41.3028 40.9421 41.1364L43.2269 41.4136C43.4254 41.4376 43.6254 41.3814 43.7823 41.2575C43.9392 41.1335 44.0401 40.9519 44.0625 40.7532L44.419 37.5983C44.4653 37.1891 44.1729 36.8191 43.7641 36.7695L41.793 36.5304C41.7199 35.9168 41.5761 35.3251 41.3702 34.7647L42.6922 33.8752C43.028 33.6492 43.1239 33.1976 42.909 32.8546L41.2393 30.1906C41.1314 30.0185 40.9584 29.8975 40.7597 29.8553C40.561 29.813 40.3536 29.8532 40.1851 29.9666L38.5145 31.0907C37.9694 30.7204 37.3731 30.4221 36.7385 30.2097V28.4713C36.7385 28.0571 36.4027 27.7213 35.9885 27.7213H32.9229ZM33.6729 30.7732V29.2213H35.2385V30.7729C35.2385 31.1184 35.4746 31.4193 35.8103 31.5014C36.627 31.7012 37.3801 32.0785 38.0291 32.5945C38.285 32.7979 38.6433 32.8121 38.9145 32.6296L40.3798 31.6436L41.2524 33.036L40.0238 33.8627C39.7176 34.0688 39.6068 34.4669 39.7626 34.8015C40.1059 35.539 40.3118 36.3599 40.3442 37.229C40.3579 37.5974 40.6374 37.9012 41.0033 37.9456L42.845 38.169L42.6569 39.8334L40.5919 39.5829C40.2639 39.5431 39.9485 39.7226 39.8152 40.0249C39.6233 40.4604 39.3838 40.8683 39.1038 41.2415C38.8872 41.5303 38.907 41.9325 39.151 42.1985L40.3017 43.453L39.1489 44.5882L37.8597 43.1826C37.6345 42.937 37.2742 42.8695 36.9753 43.0168C36.6061 43.1989 36.2161 43.342 35.8103 43.4412C35.4746 43.5234 35.2385 43.8242 35.2385 44.1698V45.7212H33.6729V44.1694C33.6729 43.8239 33.4368 43.5231 33.1012 43.4409C32.7505 43.355 32.4117 43.2364 32.088 43.0883C31.7922 42.953 31.443 43.0237 31.2232 43.2633L30.008 44.5882L28.8553 43.453L29.8733 42.3431C30.1225 42.0715 30.1373 41.6592 29.9084 41.3703C29.5659 40.9382 29.279 40.4562 29.0594 39.9363C28.9246 39.6172 28.5888 39.4319 28.2469 39.488L26.7805 39.7289L26.5273 38.0744L27.9452 37.8415C28.2934 37.7843 28.5546 37.4921 28.5727 37.1397C28.6168 36.2765 28.8321 35.4624 29.1832 34.7321C29.3446 34.3963 29.235 33.9929 28.9259 33.7849L27.8128 33.0359L28.6854 31.6436L30.0688 32.5744C30.337 32.7549 30.6906 32.7432 30.9463 32.5454C31.5807 32.0549 32.3111 31.6952 33.1013 31.5017C33.4369 31.4195 33.6729 31.1187 33.6729 30.7732ZM31.9237 37.4714C31.9237 35.9526 33.155 34.7214 34.6737 34.7214C36.1925 34.7214 37.4237 35.9526 37.4237 37.4714C37.4237 38.9901 36.1925 40.2214 34.6737 40.2214C33.155 40.2214 31.9237 38.9901 31.9237 37.4714ZM34.6737 33.2214C32.3265 33.2214 30.4237 35.1241 30.4237 37.4714C30.4237 39.8186 32.3265 41.7214 34.6737 41.7214C37.021 41.7214 38.9237 39.8186 38.9237 37.4714C38.9237 35.1241 37.021 33.2214 34.6737 33.2214ZM23.0611 53.1149C24.9941 53.1149 26.5611 51.5479 26.5611 49.6149C26.5611 47.6819 24.9941 46.1149 23.0611 46.1149C21.1281 46.1149 19.5611 47.6819 19.5611 49.6149C19.5611 51.5479 21.1281 53.1149 23.0611 53.1149ZM23.0611 54.6149C25.8225 54.6149 28.0611 52.3763 28.0611 49.6149C28.0611 46.8534 25.8225 44.6149 23.0611 44.6149C20.2997 44.6149 18.0611 46.8534 18.0611 49.6149C18.0611 52.3763 20.2997 54.6149 23.0611 54.6149ZM48.0735 43.0111L51.0735 41.3445L54.0735 43.0111V46.2459L51.0735 47.9126L48.0735 46.2459V43.0111ZM50.6164 39.8825C50.9006 39.7246 51.2463 39.7246 51.5306 39.8825L55.0893 41.8596C55.3882 42.0256 55.5735 42.3406 55.5735 42.6824V46.5747C55.5735 46.9165 55.3882 47.2315 55.0893 47.3975L51.5306 49.3746C51.2463 49.5325 50.9006 49.5325 50.6164 49.3746L47.0576 47.3975C46.7588 47.2315 46.5735 46.9165 46.5735 46.5747V42.6824C46.5735 42.3406 46.7588 42.0256 47.0576 41.8596L50.6164 39.8825ZM26.5116 24.0965C26.1099 23.9955 25.8661 23.5879 25.9671 23.1862L26.067 22.7892C26.0462 22.8018 26.0255 22.8145 26.0048 22.8272C21.1564 25.8067 17.9258 31.1575 17.9258 37.2622C17.9258 39.2518 18.2686 41.1596 18.8979 42.9309C19.0365 43.3212 18.8325 43.75 18.4422 43.8887C18.0519 44.0273 17.6231 43.8233 17.4844 43.433C16.7987 41.5028 16.4258 39.4252 16.4258 37.2622C16.4258 30.6149 19.9455 24.7902 25.2194 21.5492C25.248 21.5317 25.2767 21.5141 25.3054 21.4967L24.8947 21.3935C24.4929 21.2925 24.2492 20.8849 24.3502 20.4832C24.4511 20.0815 24.8587 19.8377 25.2604 19.9387L27.4205 20.4818C27.6134 20.5303 27.7792 20.6534 27.8813 20.8242C27.9834 20.9949 28.0135 21.1991 27.965 21.3921L27.4218 23.552C27.3208 23.9537 26.9133 24.1975 26.5116 24.0965ZM51.2458 35.7214C50.9235 35.4612 50.4513 35.5115 50.1911 35.8338C49.9309 36.1561 49.9812 36.6283 50.3035 36.8885L52.0363 38.2877C52.1911 38.4126 52.3891 38.471 52.5869 38.4499C52.7847 38.4288 52.9661 38.33 53.091 38.1753L54.4902 36.4422C54.7504 36.12 54.7001 35.6478 54.3778 35.3876C54.0555 35.1274 53.5833 35.1777 53.3231 35.5L53.2149 35.634C52.6929 29.6709 49.3308 24.5227 44.4923 21.5492C44.2014 21.3705 43.9052 21.1996 43.604 21.0369C43.2395 20.84 42.7845 20.9758 42.5876 21.3402C42.3907 21.7047 42.5265 22.1597 42.891 22.3566C43.1677 22.5061 43.4397 22.663 43.7069 22.8272C48.2524 25.6206 51.3759 30.4982 51.7484 36.1273L51.2458 35.7214ZM31.5913 52.1621C31.838 52.4948 31.7683 52.9645 31.4356 53.2113L30.8006 53.6821C30.8671 53.7058 30.9304 53.7282 30.99 53.7491C32.2309 54.0389 33.525 54.1923 34.8558 54.1923C38.1017 54.1923 41.132 53.2796 43.7069 51.6972C44.6672 51.1071 45.5643 50.4237 46.3855 49.6597C46.6887 49.3775 47.1633 49.3946 47.4454 49.6978C47.7276 50.0011 47.7105 50.4757 47.4072 50.7578C46.5138 51.5891 45.5376 52.3328 44.4923 52.9752C41.6879 54.6986 38.3868 55.6923 34.8558 55.6923C33.5904 55.6923 32.354 55.5646 31.1591 55.3213C31.3694 55.6503 31.2919 56.0907 30.9735 56.3269C30.6408 56.5736 30.1711 56.504 29.9243 56.1713L28.5975 54.3823C28.479 54.2225 28.4288 54.0222 28.458 53.8254C28.4872 53.6287 28.5934 53.4515 28.7531 53.3331L30.5421 52.0064C30.8748 51.7597 31.3446 51.8294 31.5913 52.1621Z" fill="white" style="fill:white;fill:white;fill-opacity:1;"/>
<rect x="0.75" y="0.75" width="70.5" height="70.5" rx="29.25" stroke="white" style="stroke:white;stroke:white;stroke-opacity:1;" stroke-width="1.5"/>
</svg>
