<svg width="72" height="72" viewBox="0 0 72 72" fill="none" xmlns="http://www.w3.org/2000/svg">
<path d="M36 21.8906C32.9498 21.8906 29.9682 22.7951 27.4321 24.4897C24.896 26.1843 22.9193 28.5928 21.7521 31.4108C20.5848 34.2288 20.2794 37.3296 20.8745 40.3212C21.4695 43.3127 22.9383 46.0606 25.0951 48.2174C27.2519 50.3742 29.9998 51.843 32.9913 52.438C35.9829 53.0331 39.0837 52.7277 41.9017 51.5605C44.7197 50.3932 47.1283 48.4165 48.8228 45.8804C50.5174 43.3443 51.4219 40.3627 51.4219 37.3125C51.4171 33.2238 49.7908 29.304 46.8996 26.4129C44.0085 23.5217 40.0887 21.8954 36 21.8906ZM36 50.7656C33.3392 50.7656 30.7382 49.9766 28.5259 48.4984C26.3135 47.0201 24.5892 44.919 23.5709 42.4608C22.5527 40.0026 22.2863 37.2976 22.8054 34.6879C23.3245 32.0783 24.6058 29.6812 26.4872 27.7997C28.3687 25.9183 30.7658 24.637 33.3754 24.1179C35.9851 23.5988 38.6901 23.8652 41.1483 24.8834C43.6065 25.9017 45.7076 27.626 47.1859 29.8383C48.6641 32.0507 49.4531 34.6517 49.4531 37.3125C49.4488 40.8792 48.03 44.2985 45.508 46.8205C42.986 49.3425 39.5667 50.7613 36 50.7656ZM43.2581 30.0544C43.4425 30.2389 43.546 30.4891 43.546 30.75C43.546 31.0109 43.4425 31.2611 43.2581 31.4456L36.6956 38.0081C36.6055 38.1048 36.4968 38.1824 36.3761 38.2362C36.2553 38.29 36.125 38.3189 35.9928 38.3213C35.8606 38.3236 35.7294 38.2993 35.6068 38.2498C35.4842 38.2003 35.3729 38.1266 35.2794 38.0331C35.1859 37.9396 35.1122 37.8283 35.0627 37.7057C35.0132 37.5831 34.9889 37.4519 34.9912 37.3197C34.9936 37.1875 35.0225 37.0572 35.0763 36.9364C35.1301 36.8157 35.2077 36.707 35.3044 36.6169L41.8669 30.0544C42.0515 29.87 42.3016 29.7665 42.5625 29.7665C42.8234 29.7665 43.0736 29.87 43.2581 30.0544ZM31.0781 17.625C31.0781 17.3639 31.1818 17.1135 31.3664 16.9289C31.5511 16.7443 31.8014 16.6406 32.0625 16.6406H39.9375C40.1986 16.6406 40.449 16.7443 40.6336 16.9289C40.8182 17.1135 40.9219 17.3639 40.9219 17.625C40.9219 17.8861 40.8182 18.1365 40.6336 18.3211C40.449 18.5057 40.1986 18.6094 39.9375 18.6094H32.0625C31.8014 18.6094 31.5511 18.5057 31.3664 18.3211C31.1818 18.1365 31.0781 17.8861 31.0781 17.625Z" fill="white" style="fill:white;fill:white;fill-opacity:1;"/>
<rect x="0.75" y="0.75" width="70.5" height="70.5" rx="29.25" stroke="white" style="stroke:white;stroke:white;stroke-opacity:1;" stroke-width="1.5"/>
</svg>
