<svg width="24" height="24" viewBox="0 0 24 24" fill="none" xmlns="http://www.w3.org/2000/svg">
<g clip-path="url(#clip0_1236_19929)">
<path d="M12.9393 12.0004L18.466 6.47378C18.5752 6.34625 18.6323 6.1822 18.6258 6.01441C18.6193 5.84663 18.5498 5.68747 18.431 5.56874C18.3123 5.45001 18.1532 5.38046 17.9854 5.37397C17.8176 5.36749 17.6535 5.42457 17.526 5.53378L11.9993 11.0604L6.47266 5.52712C6.34713 5.40158 6.17687 5.33105 5.99933 5.33105C5.8218 5.33105 5.65153 5.40158 5.526 5.52712C5.40046 5.65265 5.32994 5.82291 5.32994 6.00045C5.32994 6.17798 5.40046 6.34825 5.526 6.47378L11.0593 12.0004L5.526 17.5271C5.45621 17.5869 5.39953 17.6604 5.35951 17.7431C5.3195 17.8258 5.29701 17.9159 5.29347 18.0077C5.28992 18.0996 5.30539 18.1911 5.33891 18.2767C5.37242 18.3622 5.42326 18.4399 5.48823 18.5049C5.5532 18.5699 5.6309 18.6207 5.71645 18.6542C5.802 18.6877 5.89355 18.7032 5.98537 18.6996C6.07718 18.6961 6.16727 18.6736 6.24998 18.6336C6.33269 18.5936 6.40623 18.5369 6.466 18.4671L11.9993 12.9404L17.526 18.4671C17.6535 18.5763 17.8176 18.6334 17.9854 18.6269C18.1532 18.6204 18.3123 18.5509 18.431 18.4322C18.5498 18.3134 18.6193 18.1543 18.6258 17.9865C18.6323 17.8187 18.5752 17.6547 18.466 17.5271L12.9393 12.0004Z" fill="white" style="fill:white;fill:white;fill-opacity:1;"/>
</g>
<defs>
<clipPath id="clip0_1236_19929">
<rect width="24" height="24" fill="white" style="fill:white;fill:white;fill-opacity:1;"/>
</clipPath>
</defs>
</svg>
