<svg width="958" height="920" viewBox="0 0 958 920" fill="none" xmlns="http://www.w3.org/2000/svg">
<path d="M0.5 142V89.2419C0.5 78.222 6.64215 68.1209 16.4262 63.0503L123.426 7.59775C131.938 3.18662 142.062 3.18661 150.574 7.59774L257.574 63.0503C267.358 68.1209 273.5 78.222 273.5 89.2419V142V194.758C273.5 205.778 267.358 215.879 257.574 220.95L150.574 276.402C142.062 280.813 131.938 280.813 123.426 276.402L16.4262 220.95C6.64217 215.879 0.5 205.778 0.5 194.758V142Z" fill="#FF5722" fill-opacity="0.4" stroke="#FF5722"/>
<path d="M70.9852 135.5L70.6452 146.72L75.5052 135.5H82.8652C82.7718 137.753 82.7252 140.167 82.7252 142.74C82.7252 145.327 82.7718 147.747 82.8652 150H77.7252L78.0852 139.08L73.2452 150H66.0852C66.1918 147.413 66.2452 144.993 66.2452 142.74C66.2452 140.5 66.1918 138.087 66.0852 135.5H70.9852ZM97.0641 139.08C96.9974 141.107 96.9641 142.927 96.9641 144.54C96.9641 146.153 96.9974 147.973 97.0641 150H92.7241V146.36H88.8041V150H84.4641C84.5307 148.48 84.5641 146.66 84.5641 144.54C84.5641 142.42 84.5307 140.6 84.4641 139.08H88.8041V142.72H92.7241V139.08H97.0641ZM110.803 142.84C108.803 142.787 107.35 142.753 106.443 142.74V150H102.203V142.74C101.31 142.753 99.8633 142.787 97.8633 142.84V139.08H110.803V142.84ZM121.196 145H114.676C114.783 145.587 115.043 146.067 115.456 146.44C115.883 146.8 116.483 146.98 117.256 146.98C117.816 146.98 118.343 146.873 118.836 146.66C119.33 146.433 119.723 146.12 120.016 145.72C120.91 146.16 122.096 146.633 123.576 147.14C123.163 148.073 122.41 148.82 121.316 149.38C120.236 149.927 118.823 150.2 117.076 150.2C114.81 150.2 113.13 149.68 112.036 148.64C110.956 147.587 110.416 146.207 110.416 144.5C110.416 142.833 110.956 141.48 112.036 140.44C113.116 139.4 114.796 138.88 117.076 138.88C118.436 138.88 119.616 139.107 120.616 139.56C121.616 140.013 122.383 140.647 122.916 141.46C123.45 142.26 123.716 143.18 123.716 144.22C123.716 144.567 123.703 144.827 123.676 145H121.196ZM117.356 141.9C116.69 141.9 116.143 142.027 115.716 142.28C115.29 142.533 114.99 142.88 114.816 143.32H119.536C119.376 142.893 119.116 142.553 118.756 142.3C118.396 142.033 117.93 141.9 117.356 141.9ZM129.369 150H125.109C125.175 148.467 125.209 146.647 125.209 144.54C125.209 142.42 125.175 140.6 125.109 139.08H136.349C136.335 139.547 136.329 140.48 136.329 141.88V142.96H129.369V150ZM145.88 138.88C146.747 138.88 147.527 139.127 148.22 139.62C148.913 140.113 149.453 140.787 149.84 141.64C150.227 142.48 150.42 143.407 150.42 144.42C150.42 145.42 150.227 146.367 149.84 147.26C149.453 148.14 148.907 148.853 148.2 149.4C147.507 149.933 146.713 150.2 145.82 150.2C144.78 150.2 143.887 149.987 143.14 149.56C142.407 149.12 141.86 148.447 141.5 147.54C141.5 148.3 141.527 149.52 141.58 151.2C141.633 152.827 141.66 153.973 141.66 154.64H137.14C137.22 152.16 137.26 149.567 137.26 146.86C137.26 144.153 137.22 141.56 137.14 139.08H140.98L141.56 141.58C141.933 140.647 142.493 139.967 143.24 139.54C143.987 139.1 144.867 138.88 145.88 138.88ZM143.74 146.6C144.34 146.6 144.84 146.413 145.24 146.04C145.653 145.653 145.86 145.153 145.86 144.54C145.86 143.86 145.673 143.307 145.3 142.88C144.927 142.453 144.42 142.24 143.78 142.24C143.047 142.24 142.493 142.42 142.12 142.78C141.747 143.127 141.56 143.713 141.56 144.54C141.56 145.007 141.68 145.4 141.92 145.72C142.16 146.027 142.447 146.253 142.78 146.4C143.113 146.533 143.433 146.6 143.74 146.6ZM164.647 146.68C164.647 147.133 164.701 147.453 164.807 147.64C164.914 147.827 165.127 147.96 165.447 148.04L165.367 149.92C164.941 149.987 164.567 150.033 164.247 150.06C163.941 150.087 163.527 150.1 163.007 150.1C161.861 150.1 161.101 149.847 160.727 149.34C160.354 148.82 160.167 148.16 160.167 147.36V146.86C159.781 147.953 159.214 148.767 158.467 149.3C157.734 149.833 156.794 150.1 155.647 150.1C154.314 150.1 153.307 149.833 152.627 149.3C151.961 148.767 151.627 147.973 151.627 146.92C151.627 146.053 151.914 145.373 152.487 144.88C153.061 144.387 153.947 144.047 155.147 143.86C154.134 143.14 153.121 142.513 152.107 141.98C152.907 140.967 153.821 140.2 154.847 139.68C155.874 139.147 157.121 138.88 158.587 138.88C160.641 138.88 162.161 139.327 163.147 140.22C164.147 141.1 164.647 142.46 164.647 144.3V146.68ZM159.007 142.4C158.327 142.4 157.727 142.513 157.207 142.74C156.687 142.967 156.221 143.307 155.807 143.76C156.607 143.667 157.607 143.62 158.807 143.62C159.301 143.62 159.647 143.56 159.847 143.44C160.047 143.32 160.147 143.167 160.147 142.98C160.147 142.82 160.047 142.687 159.847 142.58C159.647 142.46 159.367 142.4 159.007 142.4ZM156.907 146.84C157.654 146.84 158.327 146.7 158.927 146.42C159.527 146.127 159.941 145.747 160.167 145.28V144.76C159.847 144.92 159.494 145.047 159.107 145.14C158.721 145.22 158.254 145.3 157.707 145.38L156.987 145.5C156.241 145.647 155.867 145.9 155.867 146.26C155.867 146.647 156.214 146.84 156.907 146.84ZM179.432 146.36V153.9H175.292V150H166.652C166.732 148.173 166.772 146.353 166.772 144.54C166.772 142.713 166.732 140.893 166.652 139.08H170.792V146.36H174.672V139.08H178.812C178.732 140.88 178.692 142.68 178.692 144.48C178.692 145.32 178.698 145.947 178.712 146.36H179.432ZM193.547 139.08C193.48 141.013 193.447 142.76 193.447 144.32C193.447 145.853 193.48 147.6 193.547 149.56H189.447L189.667 142.64L186.607 149.56H181.027C181.107 147.8 181.147 146.053 181.147 144.32C181.147 142.56 181.107 140.813 181.027 139.08H184.967L184.767 146.18L187.827 139.08H193.547ZM207.408 139.08C207.341 141.107 207.308 142.927 207.308 144.54C207.308 146.153 207.341 147.973 207.408 150H203.468V146.52H201.848C200.928 147.973 200.234 149.133 199.768 150H195.068C196.134 148.547 197.034 147.293 197.768 146.24C196.741 145.973 196.014 145.54 195.588 144.94C195.161 144.34 194.948 143.6 194.948 142.72C194.948 141.613 195.348 140.733 196.148 140.08C196.948 139.427 198.361 139.1 200.388 139.1H203.468V139.08H207.408ZM203.468 143.7V141.98H201.668C200.694 141.98 200.034 142.04 199.688 142.16C199.354 142.28 199.188 142.5 199.188 142.82C199.188 143.153 199.361 143.387 199.708 143.52C200.068 143.64 200.721 143.7 201.668 143.7H203.468Z" fill="white"/>
<path d="M137.5 354V301.242C137.5 290.222 143.642 280.121 153.426 275.05L260.426 219.598C268.938 215.187 279.062 215.187 287.574 219.598L394.574 275.05C404.358 280.121 410.5 290.222 410.5 301.242V354V406.758C410.5 417.778 404.358 427.879 394.574 432.95L287.574 488.402C279.062 492.813 268.938 492.813 260.426 488.402L153.426 432.95C143.642 427.879 137.5 417.778 137.5 406.758V354Z" fill="#FF5722" fill-opacity="0.4" stroke="#FF5722"/>
<path d="M207.707 333C207.614 335.253 207.567 337.667 207.567 340.24C207.567 342.827 207.614 345.247 207.707 347.5H200.547L195.707 336.58L196.067 347.5H190.927C191.034 344.913 191.087 342.493 191.087 340.24C191.087 338 191.034 335.587 190.927 333H198.287L203.147 344.22L202.807 333H207.707ZM215.746 347.7C213.466 347.7 211.786 347.18 210.706 346.14C209.639 345.087 209.106 343.707 209.106 342C209.106 340.333 209.639 338.98 210.706 337.94C211.786 336.9 213.466 336.38 215.746 336.38C217.279 336.38 218.559 336.633 219.586 337.14C220.626 337.633 221.393 338.307 221.886 339.16C222.379 340 222.626 340.947 222.626 342C222.626 343.72 222.053 345.1 220.906 346.14C219.773 347.18 218.053 347.7 215.746 347.7ZM215.826 344.3C216.693 344.3 217.339 344.093 217.766 343.68C218.193 343.267 218.406 342.713 218.406 342.02C218.406 341.367 218.193 340.833 217.766 340.42C217.339 339.993 216.693 339.78 215.826 339.78C214.959 339.78 214.326 339.987 213.926 340.4C213.526 340.813 213.326 341.353 213.326 342.02C213.326 342.713 213.526 343.267 213.926 343.68C214.326 344.093 214.959 344.3 215.826 344.3ZM232.432 342.64H223.832V338.74H232.432V342.64ZM237.897 342.04C237.924 342.72 238.137 343.267 238.537 343.68C238.95 344.093 239.557 344.3 240.357 344.3C240.797 344.3 241.19 344.22 241.537 344.06C241.884 343.887 242.204 343.633 242.497 343.3C243.63 343.74 244.957 344.12 246.477 344.44C246.037 345.467 245.29 346.267 244.237 346.84C243.197 347.413 241.844 347.7 240.177 347.7C237.95 347.7 236.304 347.18 235.237 346.14C234.17 345.1 233.637 343.733 233.637 342.04C233.637 340.347 234.17 338.98 235.237 337.94C236.304 336.9 237.95 336.38 240.177 336.38C241.844 336.38 243.197 336.667 244.237 337.24C245.29 337.813 246.037 338.613 246.477 339.64C245.29 339.893 243.964 340.273 242.497 340.78C242.204 340.447 241.884 340.2 241.537 340.04C241.19 339.867 240.797 339.78 240.357 339.78C239.557 339.78 238.95 339.987 238.537 340.4C238.137 340.813 237.924 341.36 237.897 342.04ZM254.418 347.7C252.138 347.7 250.458 347.18 249.378 346.14C248.311 345.087 247.778 343.707 247.778 342C247.778 340.333 248.311 338.98 249.378 337.94C250.458 336.9 252.138 336.38 254.418 336.38C255.951 336.38 257.231 336.633 258.258 337.14C259.298 337.633 260.064 338.307 260.558 339.16C261.051 340 261.298 340.947 261.298 342C261.298 343.72 260.724 345.1 259.578 346.14C258.444 347.18 256.724 347.7 254.418 347.7ZM254.498 344.3C255.364 344.3 256.011 344.093 256.438 343.68C256.864 343.267 257.078 342.713 257.078 342.02C257.078 341.367 256.864 340.833 256.438 340.42C256.011 339.993 255.364 339.78 254.498 339.78C253.631 339.78 252.998 339.987 252.598 340.4C252.198 340.813 251.998 341.353 251.998 342.02C251.998 342.713 252.198 343.267 252.598 343.68C252.998 344.093 253.631 344.3 254.498 344.3ZM275.784 331.94C275.704 334.42 275.664 337.013 275.664 339.72C275.664 342.4 275.704 344.993 275.784 347.5H271.264L271.324 345.1C270.938 345.993 270.378 346.653 269.644 347.08C268.911 347.493 268.044 347.7 267.044 347.7C266.178 347.7 265.398 347.453 264.704 346.96C264.011 346.467 263.471 345.8 263.084 344.96C262.698 344.107 262.504 343.173 262.504 342.16C262.504 341.16 262.698 340.22 263.084 339.34C263.471 338.447 264.011 337.733 264.704 337.2C265.411 336.653 266.211 336.38 267.104 336.38C268.144 336.38 269.031 336.6 269.764 337.04C270.511 337.467 271.064 338.133 271.424 339.04C271.424 338.28 271.398 337.06 271.344 335.38C271.291 333.753 271.264 332.607 271.264 331.94H275.784ZM269.144 344.34C269.798 344.34 270.331 344.16 270.744 343.8C271.158 343.427 271.364 342.84 271.364 342.04C271.364 341.333 271.158 340.813 270.744 340.48C270.331 340.147 269.811 339.98 269.184 339.98C268.584 339.98 268.078 340.173 267.664 340.56C267.264 340.933 267.064 341.427 267.064 342.04C267.064 342.72 267.251 343.273 267.624 343.7C267.998 344.127 268.504 344.34 269.144 344.34ZM287.972 342.5H281.452C281.558 343.087 281.818 343.567 282.232 343.94C282.658 344.3 283.258 344.48 284.032 344.48C284.592 344.48 285.118 344.373 285.612 344.16C286.105 343.933 286.498 343.62 286.792 343.22C287.685 343.66 288.872 344.133 290.352 344.64C289.938 345.573 289.185 346.32 288.092 346.88C287.012 347.427 285.598 347.7 283.852 347.7C281.585 347.7 279.905 347.18 278.812 346.14C277.732 345.087 277.192 343.707 277.192 342C277.192 340.333 277.732 338.98 278.812 337.94C279.892 336.9 281.572 336.38 283.852 336.38C285.212 336.38 286.392 336.607 287.392 337.06C288.392 337.513 289.158 338.147 289.692 338.96C290.225 339.76 290.492 340.68 290.492 341.72C290.492 342.067 290.478 342.327 290.452 342.5H287.972ZM284.132 339.4C283.465 339.4 282.918 339.527 282.492 339.78C282.065 340.033 281.765 340.38 281.592 340.82H286.312C286.152 340.393 285.892 340.053 285.532 339.8C285.172 339.533 284.705 339.4 284.132 339.4ZM312.668 333C312.575 335.253 312.528 337.667 312.528 340.24C312.528 342.827 312.575 345.247 312.668 347.5H305.508L300.668 336.58L301.028 347.5H295.888C295.995 344.913 296.048 342.493 296.048 340.24C296.048 338 295.995 335.587 295.888 333H303.248L308.108 344.22L307.768 333H312.668ZM320.707 347.7C318.427 347.7 316.747 347.18 315.667 346.14C314.6 345.087 314.067 343.707 314.067 342C314.067 340.333 314.6 338.98 315.667 337.94C316.747 336.9 318.427 336.38 320.707 336.38C322.24 336.38 323.52 336.633 324.547 337.14C325.587 337.633 326.353 338.307 326.847 339.16C327.34 340 327.587 340.947 327.587 342C327.587 343.72 327.013 345.1 325.867 346.14C324.733 347.18 323.013 347.7 320.707 347.7ZM320.787 344.3C321.653 344.3 322.3 344.093 322.727 343.68C323.153 343.267 323.367 342.713 323.367 342.02C323.367 341.367 323.153 340.833 322.727 340.42C322.3 339.993 321.653 339.78 320.787 339.78C319.92 339.78 319.287 339.987 318.887 340.4C318.487 340.813 318.287 341.353 318.287 342.02C318.287 342.713 318.487 343.267 318.887 343.68C319.287 344.093 319.92 344.3 320.787 344.3ZM342.073 331.94C341.993 334.42 341.953 337.013 341.953 339.72C341.953 342.4 341.993 344.993 342.073 347.5H337.553L337.613 345.1C337.227 345.993 336.667 346.653 335.933 347.08C335.2 347.493 334.333 347.7 333.333 347.7C332.467 347.7 331.687 347.453 330.993 346.96C330.3 346.467 329.76 345.8 329.373 344.96C328.987 344.107 328.793 343.173 328.793 342.16C328.793 341.16 328.987 340.22 329.373 339.34C329.76 338.447 330.3 337.733 330.993 337.2C331.7 336.653 332.5 336.38 333.393 336.38C334.433 336.38 335.32 336.6 336.053 337.04C336.8 337.467 337.353 338.133 337.713 339.04C337.713 338.28 337.687 337.06 337.633 335.38C337.58 333.753 337.553 332.607 337.553 331.94H342.073ZM335.433 344.34C336.087 344.34 336.62 344.16 337.033 343.8C337.447 343.427 337.653 342.84 337.653 342.04C337.653 341.333 337.447 340.813 337.033 340.48C336.62 340.147 336.1 339.98 335.473 339.98C334.873 339.98 334.367 340.173 333.953 340.56C333.553 340.933 333.353 341.427 333.353 342.04C333.353 342.72 333.54 343.273 333.913 343.7C334.287 344.127 334.793 344.34 335.433 344.34ZM354.261 342.5H347.741C347.848 343.087 348.108 343.567 348.521 343.94C348.948 344.3 349.548 344.48 350.321 344.48C350.881 344.48 351.408 344.373 351.901 344.16C352.394 343.933 352.788 343.62 353.081 343.22C353.974 343.66 355.161 344.133 356.641 344.64C356.228 345.573 355.474 346.32 354.381 346.88C353.301 347.427 351.888 347.7 350.141 347.7C347.874 347.7 346.194 347.18 345.101 346.14C344.021 345.087 343.481 343.707 343.481 342C343.481 340.333 344.021 338.98 345.101 337.94C346.181 336.9 347.861 336.38 350.141 336.38C351.501 336.38 352.681 336.607 353.681 337.06C354.681 337.513 355.448 338.147 355.981 338.96C356.514 339.76 356.781 340.68 356.781 341.72C356.781 342.067 356.768 342.327 356.741 342.5H354.261ZM350.421 339.4C349.754 339.4 349.208 339.527 348.781 339.78C348.354 340.033 348.054 340.38 347.881 340.82H352.601C352.441 340.393 352.181 340.053 351.821 339.8C351.461 339.533 350.994 339.4 350.421 339.4ZM247.568 374.78C248.021 374.1 248.394 373.467 248.688 372.88C248.994 372.293 249.288 371.613 249.568 370.84C250.514 371.387 251.614 371.813 252.868 372.12C254.121 372.427 255.288 372.58 256.368 372.58C257.474 372.58 258.254 372.487 258.708 372.3C259.161 372.1 259.388 371.887 259.388 371.66C259.388 370.847 258.148 370.44 255.668 370.44C252.948 370.44 250.974 370.16 249.748 369.6C248.521 369.027 247.908 368.107 247.908 366.84C247.908 365.04 248.654 363.713 250.148 362.86C251.641 362.007 253.581 361.58 255.968 361.58C257.354 361.58 258.774 361.76 260.228 362.12C261.694 362.467 263.014 362.947 264.188 363.56C263.801 364.44 263.394 365.513 262.968 366.78C262.888 367.047 262.821 367.247 262.768 367.38C262.088 366.833 261.061 366.38 259.688 366.02C258.314 365.647 257.101 365.46 256.048 365.46C254.781 365.46 253.928 365.547 253.488 365.72C253.048 365.88 252.828 366.12 252.828 366.44C252.828 366.76 253.128 367.02 253.728 367.22C254.341 367.407 255.221 367.5 256.368 367.5C259.194 367.5 261.248 367.827 262.528 368.48C263.808 369.12 264.448 370.107 264.448 371.44C264.448 373.307 263.768 374.653 262.408 375.48C261.048 376.293 258.988 376.7 256.228 376.7C254.748 376.7 253.241 376.54 251.708 376.22C250.174 375.887 248.794 375.407 247.568 374.78ZM283.864 369.12C283.864 373.28 281.844 375.727 277.804 376.46C278.537 376.807 279.384 377.14 280.344 377.46C279.451 378.22 278.277 379.233 276.824 380.5C275.331 379.353 274.057 378.053 273.004 376.6C270.617 376.32 268.857 375.533 267.724 374.24C266.604 372.947 266.044 371.24 266.044 369.12C266.044 366.747 266.757 364.893 268.184 363.56C269.624 362.227 271.877 361.56 274.944 361.56C278.024 361.56 280.277 362.227 281.704 363.56C283.144 364.893 283.864 366.747 283.864 369.12ZM274.944 372.62C276.424 372.62 277.491 372.34 278.144 371.78C278.797 371.207 279.124 370.32 279.124 369.12C279.124 367.947 278.797 367.073 278.144 366.5C277.491 365.927 276.424 365.64 274.944 365.64C273.477 365.64 272.417 365.927 271.764 366.5C271.111 367.073 270.784 367.947 270.784 369.12C270.784 370.307 271.111 371.187 271.764 371.76C272.417 372.333 273.477 372.62 274.944 372.62ZM290.338 372.46C294.205 372.433 297.405 372.367 299.938 372.26C299.765 372.94 299.658 373.593 299.618 374.22C299.578 374.847 299.558 375.607 299.558 376.5H285.458C285.565 373.913 285.618 371.493 285.618 369.24C285.618 366.987 285.565 364.567 285.458 361.98H290.338V372.46Z" fill="white"/>
<path d="M0.5 566V513.242C0.5 502.222 6.64215 492.121 16.4262 487.05L123.426 431.598C131.938 427.187 142.062 427.187 150.574 431.598L257.574 487.05C267.358 492.121 273.5 502.222 273.5 513.242V566V618.758C273.5 629.778 267.358 639.879 257.574 644.95L150.574 700.402C142.062 704.813 131.938 704.813 123.426 700.402L16.4262 644.95C6.64217 639.879 0.5 629.778 0.5 618.758V566Z" stroke="#FF5722"/>
<path d="M90.58 570.44H91.4V577.3H86.66V574.4H77.74V577.36H73V570.44H74C74.5733 570.333 75.0133 570.1 75.32 569.74C75.6267 569.38 75.8533 568.807 76 568.02C76.12 567.367 76.18 565.88 76.18 563.56L76.16 559.48L90.58 559.5V570.44ZM80.66 569.58C80.58 569.953 80.5067 570.24 80.44 570.44H85.52V563.4H81.04L81.02 564.56C81.02 565.573 80.9933 566.467 80.94 567.24C80.9 568 80.8067 568.78 80.66 569.58ZM105.819 570.68C105.819 571.133 105.873 571.453 105.979 571.64C106.086 571.827 106.299 571.96 106.619 572.04L106.539 573.92C106.113 573.987 105.739 574.033 105.419 574.06C105.113 574.087 104.699 574.1 104.179 574.1C103.033 574.1 102.273 573.847 101.899 573.34C101.526 572.82 101.339 572.16 101.339 571.36V570.86C100.953 571.953 100.386 572.767 99.6392 573.3C98.9059 573.833 97.9659 574.1 96.8192 574.1C95.4859 574.1 94.4792 573.833 93.7992 573.3C93.1326 572.767 92.7992 571.973 92.7992 570.92C92.7992 570.053 93.0859 569.373 93.6592 568.88C94.2326 568.387 95.1192 568.047 96.3192 567.86C95.3059 567.14 94.2926 566.513 93.2792 565.98C94.0792 564.967 94.9926 564.2 96.0192 563.68C97.0459 563.147 98.2926 562.88 99.7592 562.88C101.813 562.88 103.333 563.327 104.319 564.22C105.319 565.1 105.819 566.46 105.819 568.3V570.68ZM100.179 566.4C99.4992 566.4 98.8992 566.513 98.3792 566.74C97.8592 566.967 97.3926 567.307 96.9792 567.76C97.7792 567.667 98.7792 567.62 99.9792 567.62C100.473 567.62 100.819 567.56 101.019 567.44C101.219 567.32 101.319 567.167 101.319 566.98C101.319 566.82 101.219 566.687 101.019 566.58C100.819 566.46 100.539 566.4 100.179 566.4ZM98.0792 570.84C98.8259 570.84 99.4992 570.7 100.099 570.42C100.699 570.127 101.113 569.747 101.339 569.28V568.76C101.019 568.92 100.666 569.047 100.279 569.14C99.8926 569.22 99.4259 569.3 98.8792 569.38L98.1592 569.5C97.4126 569.647 97.0392 569.9 97.0392 570.26C97.0392 570.647 97.3859 570.84 98.0792 570.84ZM122.663 563.08C122.597 565.107 122.563 566.927 122.563 568.54C122.563 570.153 122.597 571.973 122.663 574H107.823C107.89 572.48 107.923 570.66 107.923 568.54C107.923 566.42 107.89 564.6 107.823 563.08H111.943V570.36H113.483V563.08H117.023V570.36H118.543V563.08H122.663ZM132.529 564.08C133.689 564.08 134.709 564.3 135.589 564.74C136.482 565.167 137.162 565.74 137.629 566.46C138.109 567.18 138.349 567.973 138.349 568.84C138.349 569.933 138.035 570.887 137.409 571.7C136.782 572.513 135.929 573.133 134.849 573.56C133.769 573.987 132.562 574.2 131.229 574.2C129.869 574.2 128.662 573.907 127.609 573.32C126.555 572.72 125.735 571.893 125.149 570.84C124.562 569.787 124.269 568.587 124.269 567.24C124.269 564.573 124.935 562.573 126.269 561.24C127.602 559.893 129.429 559.133 131.749 558.96L133.149 558.9C134.549 558.847 135.529 558.78 136.089 558.7V562.5C135.622 562.567 134.849 562.627 133.769 562.68C132.915 562.733 132.302 562.78 131.929 562.82C131.235 562.913 130.582 563.12 129.969 563.44C129.355 563.747 128.869 564.1 128.509 564.5C128.149 564.887 127.969 565.227 127.969 565.52C128.569 565.027 129.275 564.667 130.089 564.44C130.902 564.2 131.715 564.08 132.529 564.08ZM131.429 566.66C130.709 566.66 130.129 566.853 129.689 567.24C129.249 567.613 129.029 568.207 129.029 569.02C129.029 569.833 129.249 570.427 129.689 570.8C130.129 571.173 130.709 571.36 131.429 571.36C132.149 571.36 132.729 571.173 133.169 570.8C133.609 570.427 133.829 569.833 133.829 569.02C133.829 568.207 133.609 567.613 133.169 567.24C132.729 566.853 132.149 566.66 131.429 566.66ZM146.197 574.2C143.917 574.2 142.237 573.68 141.157 572.64C140.09 571.587 139.557 570.207 139.557 568.5C139.557 566.833 140.09 565.48 141.157 564.44C142.237 563.4 143.917 562.88 146.197 562.88C147.73 562.88 149.01 563.133 150.037 563.64C151.077 564.133 151.844 564.807 152.337 565.66C152.83 566.5 153.077 567.447 153.077 568.5C153.077 570.22 152.504 571.6 151.357 572.64C150.224 573.68 148.504 574.2 146.197 574.2ZM146.277 570.8C147.144 570.8 147.79 570.593 148.217 570.18C148.644 569.767 148.857 569.213 148.857 568.52C148.857 567.867 148.644 567.333 148.217 566.92C147.79 566.493 147.144 566.28 146.277 566.28C145.41 566.28 144.777 566.487 144.377 566.9C143.977 567.313 143.777 567.853 143.777 568.52C143.777 569.213 143.977 569.767 144.377 570.18C144.777 570.593 145.41 570.8 146.277 570.8ZM163.224 562.88C164.09 562.88 164.87 563.127 165.564 563.62C166.257 564.113 166.797 564.787 167.184 565.64C167.57 566.48 167.764 567.407 167.764 568.42C167.764 569.42 167.57 570.367 167.184 571.26C166.797 572.14 166.25 572.853 165.544 573.4C164.85 573.933 164.057 574.2 163.164 574.2C162.124 574.2 161.23 573.987 160.484 573.56C159.75 573.12 159.204 572.447 158.844 571.54C158.844 572.3 158.87 573.52 158.924 575.2C158.977 576.827 159.004 577.973 159.004 578.64H154.484C154.564 576.16 154.604 573.567 154.604 570.86C154.604 568.153 154.564 565.56 154.484 563.08H158.324L158.904 565.58C159.277 564.647 159.837 563.967 160.584 563.54C161.33 563.1 162.21 562.88 163.224 562.88ZM161.084 570.6C161.684 570.6 162.184 570.413 162.584 570.04C162.997 569.653 163.204 569.153 163.204 568.54C163.204 567.86 163.017 567.307 162.644 566.88C162.27 566.453 161.764 566.24 161.124 566.24C160.39 566.24 159.837 566.42 159.464 566.78C159.09 567.127 158.904 567.713 158.904 568.54C158.904 569.007 159.024 569.4 159.264 569.72C159.504 570.027 159.79 570.253 160.124 570.4C160.457 570.533 160.777 570.6 161.084 570.6ZM180.05 571.16H180.65V576.54H176.87V574.36H170.55V576.58H166.77V571.16H167.43C167.883 571.093 168.223 570.927 168.45 570.66C168.69 570.393 168.876 569.953 169.01 569.34C169.103 568.86 169.15 567.713 169.15 565.9V563.08L180.05 563.1V571.16ZM172.55 570.5C172.523 570.647 172.47 570.867 172.39 571.16H176.23V566.46H172.83V567.06C172.816 567.833 172.796 568.447 172.77 568.9C172.743 569.34 172.67 569.873 172.55 570.5ZM189.197 565.52C191.184 565.52 192.57 565.913 193.357 566.7C194.144 567.473 194.537 568.553 194.537 569.94C194.537 571.233 194.144 572.233 193.357 572.94C192.584 573.633 191.197 573.98 189.197 573.98H186.537V574H182.257C182.324 572.48 182.357 570.66 182.357 568.54C182.357 566.42 182.324 564.6 182.257 563.08H186.537V565.52H189.197ZM199.697 563.08C199.63 564.573 199.597 566.387 199.597 568.52C199.597 570.64 199.63 572.453 199.697 573.96H195.317C195.357 571.28 195.377 569.027 195.377 567.2C195.377 565.373 195.357 564 195.317 563.08H199.697ZM187.997 570.8C188.944 570.8 189.604 570.727 189.977 570.58C190.35 570.433 190.537 570.147 190.537 569.72C190.537 569.293 190.344 569.007 189.957 568.86C189.57 568.7 188.917 568.62 187.997 568.62L186.537 568.64V570.8H187.997Z" fill="white"/>
<path d="M274.5 566V513.242C274.5 502.222 280.642 492.121 290.426 487.05L397.426 431.598C405.938 427.187 416.062 427.187 424.574 431.598L531.574 487.05C541.358 492.121 547.5 502.222 547.5 513.242V566V618.758C547.5 629.778 541.358 639.879 531.574 644.95L424.574 700.402C416.062 704.813 405.938 704.813 397.426 700.402L290.426 644.95C280.642 639.879 274.5 629.778 274.5 618.758V566Z" stroke="#FF5722"/>
<path d="M333.682 564.94C335.509 564.94 336.942 565.133 337.982 565.52C339.022 565.893 339.749 566.413 340.162 567.08C340.576 567.747 340.782 568.567 340.782 569.54C340.782 570.953 340.262 572.047 339.222 572.82C338.182 573.593 336.336 573.98 333.682 573.98H330.122V574H325.202C325.309 571.413 325.362 568.993 325.362 566.74C325.362 564.487 325.309 562.067 325.202 559.48H339.942V563.5H330.122V564.94H333.682ZM332.882 570.52C333.802 570.52 334.496 570.487 334.962 570.42C335.442 570.353 335.776 570.247 335.962 570.1C336.162 569.953 336.262 569.733 336.262 569.44C336.262 569.147 336.162 568.92 335.962 568.76C335.762 568.6 335.422 568.487 334.942 568.42C334.462 568.353 333.776 568.32 332.882 568.32H330.122V570.52H332.882ZM352.755 569H346.235C346.342 569.587 346.602 570.067 347.015 570.44C347.442 570.8 348.042 570.98 348.815 570.98C349.375 570.98 349.902 570.873 350.395 570.66C350.888 570.433 351.282 570.12 351.575 569.72C352.468 570.16 353.655 570.633 355.135 571.14C354.722 572.073 353.968 572.82 352.875 573.38C351.795 573.927 350.382 574.2 348.635 574.2C346.368 574.2 344.688 573.68 343.595 572.64C342.515 571.587 341.975 570.207 341.975 568.5C341.975 566.833 342.515 565.48 343.595 564.44C344.675 563.4 346.355 562.88 348.635 562.88C349.995 562.88 351.175 563.107 352.175 563.56C353.175 564.013 353.942 564.647 354.475 565.46C355.008 566.26 355.275 567.18 355.275 568.22C355.275 568.567 355.262 568.827 355.235 569H352.755ZM348.915 565.9C348.248 565.9 347.702 566.027 347.275 566.28C346.848 566.533 346.548 566.88 346.375 567.32H351.095C350.935 566.893 350.675 566.553 350.315 566.3C349.955 566.033 349.488 565.9 348.915 565.9ZM365.447 568.4C365.581 568.387 365.767 568.38 366.007 568.38C366.901 568.38 367.554 568.587 367.967 569C368.394 569.413 368.607 569.9 368.607 570.46C368.607 571.647 368.067 572.567 366.987 573.22C365.907 573.873 364.521 574.2 362.827 574.2C361.347 574.2 360.041 573.947 358.907 573.44C357.787 572.933 356.974 572.08 356.467 570.88L357.327 570.66C358.567 570.353 359.487 570.06 360.087 569.78C360.301 570.193 360.601 570.513 360.987 570.74C361.374 570.953 361.887 571.06 362.527 571.06C363.247 571.06 363.794 570.993 364.167 570.86C364.554 570.727 364.747 570.507 364.747 570.2C364.747 569.96 364.534 569.793 364.107 569.7C363.681 569.607 363.067 569.56 362.267 569.56H361.127V566.92H361.807C362.541 566.92 363.127 566.887 363.567 566.82C364.007 566.753 364.227 566.607 364.227 566.38C364.227 566.153 364.101 565.973 363.847 565.84C363.594 565.707 363.254 565.64 362.827 565.64C362.134 565.64 361.587 565.767 361.187 566.02C360.801 566.273 360.434 566.687 360.087 567.26C359.034 566.82 357.881 566.507 356.627 566.32C357.654 564.04 359.787 562.9 363.027 562.9C363.974 562.9 364.841 563.04 365.627 563.32C366.414 563.587 367.034 563.96 367.487 564.44C367.941 564.907 368.167 565.433 368.167 566.02C368.167 567.3 367.261 568.093 365.447 568.4ZM376.447 574.2C374.167 574.2 372.487 573.68 371.407 572.64C370.34 571.587 369.807 570.207 369.807 568.5C369.807 566.833 370.34 565.48 371.407 564.44C372.487 563.4 374.167 562.88 376.447 562.88C377.98 562.88 379.26 563.133 380.287 563.64C381.327 564.133 382.094 564.807 382.587 565.66C383.08 566.5 383.327 567.447 383.327 568.5C383.327 570.22 382.754 571.6 381.607 572.64C380.474 573.68 378.754 574.2 376.447 574.2ZM376.527 570.8C377.394 570.8 378.04 570.593 378.467 570.18C378.894 569.767 379.107 569.213 379.107 568.52C379.107 567.867 378.894 567.333 378.467 566.92C378.04 566.493 377.394 566.28 376.527 566.28C375.66 566.28 375.027 566.487 374.627 566.9C374.227 567.313 374.027 567.853 374.027 568.52C374.027 569.213 374.227 569.767 374.627 570.18C375.027 570.593 375.66 570.8 376.527 570.8ZM384.734 563.1H397.654V574.1H393.274V566.86H389.114V574.1H384.734V563.1ZM412.065 570.68C412.065 571.133 412.119 571.453 412.225 571.64C412.332 571.827 412.545 571.96 412.865 572.04L412.785 573.92C412.359 573.987 411.985 574.033 411.665 574.06C411.359 574.087 410.945 574.1 410.425 574.1C409.279 574.1 408.519 573.847 408.145 573.34C407.772 572.82 407.585 572.16 407.585 571.36V570.86C407.199 571.953 406.632 572.767 405.885 573.3C405.152 573.833 404.212 574.1 403.065 574.1C401.732 574.1 400.725 573.833 400.045 573.3C399.379 572.767 399.045 571.973 399.045 570.92C399.045 570.053 399.332 569.373 399.905 568.88C400.479 568.387 401.365 568.047 402.565 567.86C401.552 567.14 400.539 566.513 399.525 565.98C400.325 564.967 401.239 564.2 402.265 563.68C403.292 563.147 404.539 562.88 406.005 562.88C408.059 562.88 409.579 563.327 410.565 564.22C411.565 565.1 412.065 566.46 412.065 568.3V570.68ZM406.425 566.4C405.745 566.4 405.145 566.513 404.625 566.74C404.105 566.967 403.639 567.307 403.225 567.76C404.025 567.667 405.025 567.62 406.225 567.62C406.719 567.62 407.065 567.56 407.265 567.44C407.465 567.32 407.565 567.167 407.565 566.98C407.565 566.82 407.465 566.687 407.265 566.58C407.065 566.46 406.785 566.4 406.425 566.4ZM404.325 570.84C405.072 570.84 405.745 570.7 406.345 570.42C406.945 570.127 407.359 569.747 407.585 569.28V568.76C407.265 568.92 406.912 569.047 406.525 569.14C406.139 569.22 405.672 569.3 405.125 569.38L404.405 569.5C403.659 569.647 403.285 569.9 403.285 570.26C403.285 570.647 403.632 570.84 404.325 570.84ZM418.13 568.54C418.156 569.22 418.37 569.767 418.77 570.18C419.183 570.593 419.79 570.8 420.59 570.8C421.03 570.8 421.423 570.72 421.77 570.56C422.116 570.387 422.436 570.133 422.73 569.8C423.863 570.24 425.19 570.62 426.71 570.94C426.27 571.967 425.523 572.767 424.47 573.34C423.43 573.913 422.076 574.2 420.41 574.2C418.183 574.2 416.536 573.68 415.47 572.64C414.403 571.6 413.87 570.233 413.87 568.54C413.87 566.847 414.403 565.48 415.47 564.44C416.536 563.4 418.183 562.88 420.41 562.88C422.076 562.88 423.43 563.167 424.47 563.74C425.523 564.313 426.27 565.113 426.71 566.14C425.523 566.393 424.196 566.773 422.73 567.28C422.436 566.947 422.116 566.7 421.77 566.54C421.423 566.367 421.03 566.28 420.59 566.28C419.79 566.28 419.183 566.487 418.77 566.9C418.37 567.313 418.156 567.86 418.13 568.54ZM440.81 563.08C440.743 565.107 440.71 566.927 440.71 568.54C440.71 570.153 440.743 571.973 440.81 574H436.47V570.36H432.55V574H428.21C428.277 572.48 428.31 570.66 428.31 568.54C428.31 566.42 428.277 564.6 428.21 563.08H432.55V566.72H436.47V563.08H440.81ZM448.849 574.2C446.569 574.2 444.889 573.68 443.809 572.64C442.743 571.587 442.209 570.207 442.209 568.5C442.209 566.833 442.743 565.48 443.809 564.44C444.889 563.4 446.569 562.88 448.849 562.88C450.383 562.88 451.663 563.133 452.689 563.64C453.729 564.133 454.496 564.807 454.989 565.66C455.483 566.5 455.729 567.447 455.729 568.5C455.729 570.22 455.156 571.6 454.009 572.64C452.876 573.68 451.156 574.2 448.849 574.2ZM448.929 570.8C449.796 570.8 450.443 570.593 450.869 570.18C451.296 569.767 451.509 569.213 451.509 568.52C451.509 567.867 451.296 567.333 450.869 566.92C450.443 566.493 449.796 566.28 448.929 566.28C448.063 566.28 447.429 566.487 447.029 566.9C446.629 567.313 446.429 567.853 446.429 568.52C446.429 569.213 446.629 569.767 447.029 570.18C447.429 570.593 448.063 570.8 448.929 570.8ZM461.196 568.54C461.223 569.22 461.436 569.767 461.836 570.18C462.249 570.593 462.856 570.8 463.656 570.8C464.096 570.8 464.489 570.72 464.836 570.56C465.183 570.387 465.503 570.133 465.796 569.8C466.929 570.24 468.256 570.62 469.776 570.94C469.336 571.967 468.589 572.767 467.536 573.34C466.496 573.913 465.143 574.2 463.476 574.2C461.249 574.2 459.603 573.68 458.536 572.64C457.469 571.6 456.936 570.233 456.936 568.54C456.936 566.847 457.469 565.48 458.536 564.44C459.603 563.4 461.249 562.88 463.476 562.88C465.143 562.88 466.496 563.167 467.536 563.74C468.589 564.313 469.336 565.113 469.776 566.14C468.589 566.393 467.263 566.773 465.796 567.28C465.503 566.947 465.183 566.7 464.836 566.54C464.489 566.367 464.096 566.28 463.656 566.28C462.856 566.28 462.249 566.487 461.836 566.9C461.436 567.313 461.223 567.86 461.196 568.54ZM483.417 566.84C481.417 566.787 479.963 566.753 479.057 566.74V574H474.817V566.74C473.923 566.753 472.477 566.787 470.477 566.84V563.08H483.417V566.84ZM491.166 565.52C493.152 565.52 494.539 565.913 495.326 566.7C496.112 567.473 496.506 568.553 496.506 569.94C496.506 571.233 496.112 572.233 495.326 572.94C494.552 573.633 493.166 573.98 491.166 573.98H488.506V574H484.226C484.292 572.48 484.326 570.66 484.326 568.54C484.326 566.42 484.292 564.6 484.226 563.08H488.506V565.52H491.166ZM489.966 570.8C490.912 570.8 491.572 570.727 491.946 570.58C492.319 570.433 492.506 570.147 492.506 569.72C492.506 569.293 492.312 569.007 491.926 568.86C491.539 568.7 490.886 568.62 489.966 568.62L488.506 568.64V570.8H489.966Z" fill="white"/>
<path d="M547.5 566V513.242C547.5 502.222 553.642 492.121 563.426 487.05L670.426 431.598C678.938 427.187 689.062 427.187 697.574 431.598L804.574 487.05C814.358 492.121 820.5 502.222 820.5 513.242V566V618.758C820.5 629.778 814.358 639.879 804.574 644.95L697.574 700.402C689.062 704.813 678.938 704.813 670.426 700.402L563.426 644.95C553.642 639.879 547.5 629.778 547.5 618.758V566Z" stroke="#FF5722"/>
<path d="M633.506 574.2C630.493 574.2 628.273 573.56 626.846 572.28C625.42 571 624.706 569.173 624.706 566.8C624.706 564.413 625.42 562.527 626.846 561.14C628.273 559.753 630.493 559.06 633.506 559.06C637.72 559.06 640.54 560.507 641.966 563.4C640.766 563.813 639.36 564.433 637.746 565.26C637.36 564.513 636.746 563.96 635.906 563.6C635.08 563.24 634.233 563.06 633.366 563.06C632.086 563.06 631.133 563.4 630.506 564.08C629.88 564.747 629.566 565.573 629.566 566.56C629.566 567.627 629.9 568.5 630.566 569.18C631.246 569.847 632.28 570.18 633.666 570.18C634.773 570.18 635.653 570 636.306 569.64C636.96 569.267 637.44 568.68 637.746 567.88C638.84 568.467 640.24 569.127 641.946 569.86C641.28 571.473 640.166 572.6 638.606 573.24C637.046 573.88 635.346 574.2 633.506 574.2ZM656.353 570.36V577.9H652.213V574H643.573C643.653 572.173 643.693 570.353 643.693 568.54C643.693 566.713 643.653 564.893 643.573 563.08H647.713V570.36H651.593V563.08H655.733C655.653 564.88 655.613 566.68 655.613 568.48C655.613 569.32 655.62 569.947 655.633 570.36H656.353ZM668.528 569H662.008C662.115 569.587 662.375 570.067 662.788 570.44C663.215 570.8 663.815 570.98 664.588 570.98C665.148 570.98 665.675 570.873 666.168 570.66C666.662 570.433 667.055 570.12 667.348 569.72C668.242 570.16 669.428 570.633 670.908 571.14C670.495 572.073 669.742 572.82 668.648 573.38C667.568 573.927 666.155 574.2 664.408 574.2C662.142 574.2 660.462 573.68 659.368 572.64C658.288 571.587 657.748 570.207 657.748 568.5C657.748 566.833 658.288 565.48 659.368 564.44C660.448 563.4 662.128 562.88 664.408 562.88C665.768 562.88 666.948 563.107 667.948 563.56C668.948 564.013 669.715 564.647 670.248 565.46C670.782 566.26 671.048 567.18 671.048 568.22C671.048 568.567 671.035 568.827 671.008 569H668.528ZM664.688 565.9C664.022 565.9 663.475 566.027 663.048 566.28C662.622 566.533 662.322 566.88 662.148 567.32H666.868C666.708 566.893 666.448 566.553 666.088 566.3C665.728 566.033 665.262 565.9 664.688 565.9ZM685.041 563.08C684.974 565.107 684.941 566.927 684.941 568.54C684.941 570.153 684.974 571.973 685.041 574H680.701V570.36H676.781V574H672.441C672.507 572.48 672.541 570.66 672.541 568.54C672.541 566.42 672.507 564.6 672.441 563.08H676.781V566.72H680.701V563.08H685.041ZM699.46 570.68C699.46 571.133 699.513 571.453 699.62 571.64C699.727 571.827 699.94 571.96 700.26 572.04L700.18 573.92C699.753 573.987 699.38 574.033 699.06 574.06C698.753 574.087 698.34 574.1 697.82 574.1C696.673 574.1 695.913 573.847 695.54 573.34C695.167 572.82 694.98 572.16 694.98 571.36V570.86C694.593 571.953 694.027 572.767 693.28 573.3C692.547 573.833 691.607 574.1 690.46 574.1C689.127 574.1 688.12 573.833 687.44 573.3C686.773 572.767 686.44 571.973 686.44 570.92C686.44 570.053 686.727 569.373 687.3 568.88C687.873 568.387 688.76 568.047 689.96 567.86C688.947 567.14 687.933 566.513 686.92 565.98C687.72 564.967 688.633 564.2 689.66 563.68C690.687 563.147 691.933 562.88 693.4 562.88C695.453 562.88 696.973 563.327 697.96 564.22C698.96 565.1 699.46 566.46 699.46 568.3V570.68ZM693.82 566.4C693.14 566.4 692.54 566.513 692.02 566.74C691.5 566.967 691.033 567.307 690.62 567.76C691.42 567.667 692.42 567.62 693.62 567.62C694.113 567.62 694.46 567.56 694.66 567.44C694.86 567.32 694.96 567.167 694.96 566.98C694.96 566.82 694.86 566.687 694.66 566.58C694.46 566.46 694.18 566.4 693.82 566.4ZM691.72 570.84C692.467 570.84 693.14 570.7 693.74 570.42C694.34 570.127 694.753 569.747 694.98 569.28V568.76C694.66 568.92 694.307 569.047 693.92 569.14C693.533 569.22 693.067 569.3 692.52 569.38L691.8 569.5C691.053 569.647 690.68 569.9 690.68 570.26C690.68 570.647 691.027 570.84 691.72 570.84ZM710.204 562.88C711.071 562.88 711.851 563.127 712.544 563.62C713.237 564.113 713.777 564.787 714.164 565.64C714.551 566.48 714.744 567.407 714.744 568.42C714.744 569.42 714.551 570.367 714.164 571.26C713.777 572.14 713.231 572.853 712.524 573.4C711.831 573.933 711.037 574.2 710.144 574.2C709.104 574.2 708.211 573.987 707.464 573.56C706.731 573.12 706.184 572.447 705.824 571.54C705.824 572.3 705.851 573.52 705.904 575.2C705.957 576.827 705.984 577.973 705.984 578.64H701.464C701.544 576.16 701.584 573.567 701.584 570.86C701.584 568.153 701.544 565.56 701.464 563.08H705.304L705.884 565.58C706.257 564.647 706.817 563.967 707.564 563.54C708.311 563.1 709.191 562.88 710.204 562.88ZM708.064 570.6C708.664 570.6 709.164 570.413 709.564 570.04C709.977 569.653 710.184 569.153 710.184 568.54C710.184 567.86 709.997 567.307 709.624 566.88C709.251 566.453 708.744 566.24 708.104 566.24C707.371 566.24 706.817 566.42 706.444 566.78C706.071 567.127 705.884 567.713 705.884 568.54C705.884 569.007 706.004 569.4 706.244 569.72C706.484 570.027 706.771 570.253 707.104 570.4C707.437 570.533 707.757 570.6 708.064 570.6ZM728.672 563.08C728.605 565.013 728.572 566.76 728.572 568.32C728.572 569.853 728.605 571.6 728.672 573.56H724.572L724.792 566.64L721.732 573.56H716.152C716.232 571.8 716.272 570.053 716.272 568.32C716.272 566.56 716.232 564.813 716.152 563.08H720.092L719.892 570.18L722.952 563.08H728.672ZM742.793 563.08C742.726 565.013 742.693 566.76 742.693 568.32C742.693 569.853 742.726 571.6 742.793 573.56H738.693L738.913 566.64L735.853 573.56H730.273C730.353 571.8 730.393 570.053 730.393 568.32C730.393 566.56 730.353 564.813 730.273 563.08H734.213L734.013 570.18L737.073 563.08H742.793Z" fill="white"/>
<path d="M684.5 778V725.242C684.5 714.222 690.642 704.121 700.426 699.05L807.426 643.598C815.938 639.187 826.062 639.187 834.574 643.598L941.574 699.05C951.358 704.121 957.5 714.222 957.5 725.242V778V830.758C957.5 841.778 951.358 851.879 941.574 856.95L834.574 912.402C826.062 916.813 815.938 916.813 807.426 912.402L700.426 856.95C690.642 851.879 684.5 841.778 684.5 830.758V778Z" stroke="#FF5722"/>
<path d="M746.854 778.78C749.894 778.78 751.414 779.747 751.414 781.68C751.414 782.587 751.207 783.36 750.794 784C750.381 784.627 749.641 785.12 748.574 785.48C747.507 785.827 746.027 786 744.134 786H735.134C735.241 783.413 735.294 780.993 735.294 778.74C735.294 776.487 735.241 774.067 735.134 771.48H739.834V771.5H744.094C745.747 771.5 747.047 771.64 747.994 771.92C748.954 772.187 749.627 772.58 750.014 773.1C750.414 773.62 750.614 774.28 750.614 775.08C750.614 775.893 750.327 776.62 749.754 777.26C749.194 777.887 748.227 778.393 746.854 778.78ZM739.834 775.14V777H743.674C744.501 777 745.074 776.927 745.394 776.78C745.727 776.633 745.894 776.367 745.894 775.98C745.894 775.673 745.721 775.46 745.374 775.34C745.041 775.207 744.474 775.14 743.674 775.14H739.834ZM743.674 782.34C744.367 782.34 744.894 782.313 745.254 782.26C745.627 782.193 745.894 782.087 746.054 781.94C746.214 781.78 746.294 781.567 746.294 781.3C746.294 780.953 746.101 780.707 745.714 780.56C745.341 780.4 744.661 780.32 743.674 780.32H739.834V782.34H743.674ZM765.525 775.08C765.458 777.013 765.425 778.76 765.425 780.32C765.425 781.853 765.458 783.6 765.525 785.56H761.425L761.645 778.64L758.585 785.56H753.005C753.085 783.8 753.125 782.053 753.125 780.32C753.125 778.56 753.085 776.813 753.005 775.08H756.945L756.745 782.18L759.805 775.08H765.525ZM775.906 780.4C776.04 780.387 776.226 780.38 776.466 780.38C777.36 780.38 778.013 780.587 778.426 781C778.853 781.413 779.066 781.9 779.066 782.46C779.066 783.647 778.526 784.567 777.446 785.22C776.366 785.873 774.98 786.2 773.286 786.2C771.806 786.2 770.5 785.947 769.366 785.44C768.246 784.933 767.433 784.08 766.926 782.88L767.786 782.66C769.026 782.353 769.946 782.06 770.546 781.78C770.76 782.193 771.06 782.513 771.446 782.74C771.833 782.953 772.346 783.06 772.986 783.06C773.706 783.06 774.253 782.993 774.626 782.86C775.013 782.727 775.206 782.507 775.206 782.2C775.206 781.96 774.993 781.793 774.566 781.7C774.14 781.607 773.526 781.56 772.726 781.56H771.586V778.92H772.266C773 778.92 773.586 778.887 774.026 778.82C774.466 778.753 774.686 778.607 774.686 778.38C774.686 778.153 774.56 777.973 774.306 777.84C774.053 777.707 773.713 777.64 773.286 777.64C772.593 777.64 772.046 777.767 771.646 778.02C771.26 778.273 770.893 778.687 770.546 779.26C769.493 778.82 768.34 778.507 767.086 778.32C768.113 776.04 770.246 774.9 773.486 774.9C774.433 774.9 775.3 775.04 776.086 775.32C776.873 775.587 777.493 775.96 777.946 776.44C778.4 776.907 778.626 777.433 778.626 778.02C778.626 779.3 777.72 780.093 775.906 780.4ZM793.626 775.08L793.166 776.24C791.899 779.613 790.573 782.867 789.186 786C788.466 787.6 787.426 788.88 786.066 789.84C784.706 790.813 782.999 791.28 780.946 791.24C780.693 790.133 780.479 789.267 780.306 788.64C780.146 788.027 779.933 787.407 779.666 786.78C780.399 786.953 781.086 787.04 781.726 787.04C782.766 787.04 783.593 786.82 784.206 786.38C783.726 784.953 783.159 783.42 782.506 781.78C781.853 780.14 780.906 777.907 779.666 775.08H784.406C784.566 775.747 784.786 776.52 785.066 777.4C785.346 778.28 785.626 779.127 785.906 779.94C785.986 780.193 786.113 780.58 786.286 781.1C786.473 781.607 786.619 782.033 786.726 782.38L787.246 780.8C788.246 777.907 788.839 776 789.026 775.08H793.626ZM807.251 782.68C807.251 783.133 807.304 783.453 807.411 783.64C807.518 783.827 807.731 783.96 808.051 784.04L807.971 785.92C807.544 785.987 807.171 786.033 806.851 786.06C806.544 786.087 806.131 786.1 805.611 786.1C804.464 786.1 803.704 785.847 803.331 785.34C802.958 784.82 802.771 784.16 802.771 783.36V782.86C802.384 783.953 801.818 784.767 801.071 785.3C800.338 785.833 799.398 786.1 798.251 786.1C796.918 786.1 795.911 785.833 795.231 785.3C794.564 784.767 794.231 783.973 794.231 782.92C794.231 782.053 794.518 781.373 795.091 780.88C795.664 780.387 796.551 780.047 797.751 779.86C796.738 779.14 795.724 778.513 794.711 777.98C795.511 776.967 796.424 776.2 797.451 775.68C798.478 775.147 799.724 774.88 801.191 774.88C803.244 774.88 804.764 775.327 805.751 776.22C806.751 777.1 807.251 778.46 807.251 780.3V782.68ZM801.611 778.4C800.931 778.4 800.331 778.513 799.811 778.74C799.291 778.967 798.824 779.307 798.411 779.76C799.211 779.667 800.211 779.62 801.411 779.62C801.904 779.62 802.251 779.56 802.451 779.44C802.651 779.32 802.751 779.167 802.751 778.98C802.751 778.82 802.651 778.687 802.451 778.58C802.251 778.46 801.971 778.4 801.611 778.4ZM799.511 782.84C800.258 782.84 800.931 782.7 801.531 782.42C802.131 782.127 802.544 781.747 802.771 781.28V780.76C802.451 780.92 802.098 781.047 801.711 781.14C801.324 781.22 800.858 781.3 800.311 781.38L799.591 781.5C798.844 781.647 798.471 781.9 798.471 782.26C798.471 782.647 798.818 782.84 799.511 782.84ZM821.715 786.1H817.335V778.86H814.495L814.475 779.48C814.462 780.12 814.435 780.687 814.395 781.18C814.368 781.66 814.302 782.18 814.195 782.74C813.742 785.18 811.895 786.4 808.655 786.4V783.22C809.282 783.14 809.708 782.947 809.935 782.64C810.162 782.32 810.275 781.827 810.275 781.16V775.08L821.715 775.1V786.1ZM835.838 775.08C835.771 777.013 835.738 778.76 835.738 780.32C835.738 781.853 835.771 783.6 835.838 785.56H831.738L831.958 778.64L828.898 785.56H823.318C823.398 783.8 823.438 782.053 823.438 780.32C823.438 778.56 823.398 776.813 823.318 775.08H827.258L827.058 782.18L830.118 775.08H835.838ZM846.219 780.4C846.352 780.387 846.539 780.38 846.779 780.38C847.672 780.38 848.325 780.587 848.739 781C849.165 781.413 849.379 781.9 849.379 782.46C849.379 783.647 848.839 784.567 847.759 785.22C846.679 785.873 845.292 786.2 843.599 786.2C842.119 786.2 840.812 785.947 839.679 785.44C838.559 784.933 837.745 784.08 837.239 782.88L838.099 782.66C839.339 782.353 840.259 782.06 840.859 781.78C841.072 782.193 841.372 782.513 841.759 782.74C842.145 782.953 842.659 783.06 843.299 783.06C844.019 783.06 844.565 782.993 844.939 782.86C845.325 782.727 845.519 782.507 845.519 782.2C845.519 781.96 845.305 781.793 844.879 781.7C844.452 781.607 843.839 781.56 843.039 781.56H841.899V778.92H842.579C843.312 778.92 843.899 778.887 844.339 778.82C844.779 778.753 844.999 778.607 844.999 778.38C844.999 778.153 844.872 777.973 844.619 777.84C844.365 777.707 844.025 777.64 843.599 777.64C842.905 777.64 842.359 777.767 841.959 778.02C841.572 778.273 841.205 778.687 840.859 779.26C839.805 778.82 838.652 778.507 837.399 778.32C838.425 776.04 840.559 774.9 843.799 774.9C844.745 774.9 845.612 775.04 846.399 775.32C847.185 775.587 847.805 775.96 848.259 776.44C848.712 776.907 848.939 777.433 848.939 778.02C848.939 779.3 848.032 780.093 846.219 780.4ZM863.599 782.68C863.599 783.133 863.652 783.453 863.759 783.64C863.865 783.827 864.079 783.96 864.399 784.04L864.319 785.92C863.892 785.987 863.519 786.033 863.199 786.06C862.892 786.087 862.479 786.1 861.959 786.1C860.812 786.1 860.052 785.847 859.679 785.34C859.305 784.82 859.119 784.16 859.119 783.36V782.86C858.732 783.953 858.165 784.767 857.419 785.3C856.685 785.833 855.745 786.1 854.599 786.1C853.265 786.1 852.259 785.833 851.579 785.3C850.912 784.767 850.579 783.973 850.579 782.92C850.579 782.053 850.865 781.373 851.439 780.88C852.012 780.387 852.899 780.047 854.099 779.86C853.085 779.14 852.072 778.513 851.059 777.98C851.859 776.967 852.772 776.2 853.799 775.68C854.825 775.147 856.072 774.88 857.539 774.88C859.592 774.88 861.112 775.327 862.099 776.22C863.099 777.1 863.599 778.46 863.599 780.3V782.68ZM857.959 778.4C857.279 778.4 856.679 778.513 856.159 778.74C855.639 778.967 855.172 779.307 854.759 779.76C855.559 779.667 856.559 779.62 857.759 779.62C858.252 779.62 858.599 779.56 858.799 779.44C858.999 779.32 859.099 779.167 859.099 778.98C859.099 778.82 858.999 778.687 858.799 778.58C858.599 778.46 858.319 778.4 857.959 778.4ZM855.859 782.84C856.605 782.84 857.279 782.7 857.879 782.42C858.479 782.127 858.892 781.747 859.119 781.28V780.76C858.799 780.92 858.445 781.047 858.059 781.14C857.672 781.22 857.205 781.3 856.659 781.38L855.939 781.5C855.192 781.647 854.819 781.9 854.819 782.26C854.819 782.647 855.165 782.84 855.859 782.84ZM878.383 782.36V789.9H874.243V786H865.603C865.683 784.173 865.723 782.353 865.723 780.54C865.723 778.713 865.683 776.893 865.603 775.08H869.743V782.36H873.623V775.08H877.763C877.683 776.88 877.643 778.68 877.643 780.48C877.643 781.32 877.649 781.947 877.663 782.36H878.383ZM892.498 775.08C892.431 777.013 892.398 778.76 892.398 780.32C892.398 781.853 892.431 783.6 892.498 785.56H888.398L888.618 778.64L885.558 785.56H879.978C880.058 783.8 880.098 782.053 880.098 780.32C880.098 778.56 880.058 776.813 879.978 775.08H883.918L883.718 782.18L886.778 775.08H892.498ZM906.359 775.08C906.292 777.107 906.259 778.927 906.259 780.54C906.259 782.153 906.292 783.973 906.359 786H902.419V782.52H900.799C899.879 783.973 899.185 785.133 898.719 786H894.019C895.085 784.547 895.985 783.293 896.719 782.24C895.692 781.973 894.965 781.54 894.539 780.94C894.112 780.34 893.899 779.6 893.899 778.72C893.899 777.613 894.299 776.733 895.099 776.08C895.899 775.427 897.312 775.1 899.339 775.1H902.419V775.08H906.359ZM902.419 779.7V777.98H900.619C899.645 777.98 898.985 778.04 898.639 778.16C898.305 778.28 898.139 778.5 898.139 778.82C898.139 779.153 898.312 779.387 898.659 779.52C899.019 779.64 899.672 779.7 900.619 779.7H902.419Z" fill="white"/>
<path d="M410.5 354V301.242C410.5 290.222 416.642 280.121 426.426 275.05L533.426 219.598C541.938 215.187 552.062 215.187 560.574 219.598L667.574 275.05C677.358 280.121 683.5 290.222 683.5 301.242V354V406.758C683.5 417.778 677.358 427.879 667.574 432.95L560.574 488.402C552.062 492.813 541.938 492.813 533.426 488.402L426.426 432.95C416.642 427.879 410.5 417.778 410.5 406.758V354Z" stroke="#FF5722"/>
<path d="M510.456 347.48C510.363 349.733 510.316 352.153 510.316 354.74C510.316 357.327 510.363 359.747 510.456 362H492.296C492.403 359.413 492.456 356.993 492.456 354.74C492.456 352.487 492.403 350.067 492.296 347.48H496.996V357.96H499.316V347.48H503.656V357.96H505.756V347.48H510.456ZM524.882 358.68C524.882 359.133 524.935 359.453 525.042 359.64C525.148 359.827 525.362 359.96 525.682 360.04L525.602 361.92C525.175 361.987 524.802 362.033 524.482 362.06C524.175 362.087 523.762 362.1 523.242 362.1C522.095 362.1 521.335 361.847 520.962 361.34C520.588 360.82 520.402 360.16 520.402 359.36V358.86C520.015 359.953 519.448 360.767 518.702 361.3C517.968 361.833 517.028 362.1 515.882 362.1C514.548 362.1 513.542 361.833 512.862 361.3C512.195 360.767 511.862 359.973 511.862 358.92C511.862 358.053 512.148 357.373 512.722 356.88C513.295 356.387 514.182 356.047 515.382 355.86C514.368 355.14 513.355 354.513 512.342 353.98C513.142 352.967 514.055 352.2 515.082 351.68C516.108 351.147 517.355 350.88 518.822 350.88C520.875 350.88 522.395 351.327 523.382 352.22C524.382 353.1 524.882 354.46 524.882 356.3V358.68ZM519.242 354.4C518.562 354.4 517.962 354.513 517.442 354.74C516.922 354.967 516.455 355.307 516.042 355.76C516.842 355.667 517.842 355.62 519.042 355.62C519.535 355.62 519.882 355.56 520.082 355.44C520.282 355.32 520.382 355.167 520.382 354.98C520.382 354.82 520.282 354.687 520.082 354.58C519.882 354.46 519.602 354.4 519.242 354.4ZM517.142 358.84C517.888 358.84 518.562 358.7 519.162 358.42C519.762 358.127 520.175 357.747 520.402 357.28V356.76C520.082 356.92 519.728 357.047 519.342 357.14C518.955 357.22 518.488 357.3 517.942 357.38L517.222 357.5C516.475 357.647 516.102 357.9 516.102 358.26C516.102 358.647 516.448 358.84 517.142 358.84ZM535.146 352.08C536.306 352.08 537.326 352.3 538.206 352.74C539.099 353.167 539.779 353.74 540.246 354.46C540.726 355.18 540.966 355.973 540.966 356.84C540.966 357.933 540.653 358.887 540.026 359.7C539.399 360.513 538.546 361.133 537.466 361.56C536.386 361.987 535.179 362.2 533.846 362.2C532.486 362.2 531.279 361.907 530.226 361.32C529.173 360.72 528.353 359.893 527.766 358.84C527.179 357.787 526.886 356.587 526.886 355.24C526.886 352.573 527.553 350.573 528.886 349.24C530.219 347.893 532.046 347.133 534.366 346.96L535.766 346.9C537.166 346.847 538.146 346.78 538.706 346.7V350.5C538.239 350.567 537.466 350.627 536.386 350.68C535.533 350.733 534.919 350.78 534.546 350.82C533.853 350.913 533.199 351.12 532.586 351.44C531.973 351.747 531.486 352.1 531.126 352.5C530.766 352.887 530.586 353.227 530.586 353.52C531.186 353.027 531.893 352.667 532.706 352.44C533.519 352.2 534.333 352.08 535.146 352.08ZM534.046 354.66C533.326 354.66 532.746 354.853 532.306 355.24C531.866 355.613 531.646 356.207 531.646 357.02C531.646 357.833 531.866 358.427 532.306 358.8C532.746 359.173 533.326 359.36 534.046 359.36C534.766 359.36 535.346 359.173 535.786 358.8C536.226 358.427 536.446 357.833 536.446 357.02C536.446 356.207 536.226 355.613 535.786 355.24C535.346 354.853 534.766 354.66 534.046 354.66ZM553.233 362.1H548.853V354.86H546.013L545.993 355.48C545.979 356.12 545.953 356.687 545.913 357.18C545.886 357.66 545.819 358.18 545.713 358.74C545.259 361.18 543.413 362.4 540.173 362.4V359.22C540.799 359.14 541.226 358.947 541.453 358.64C541.679 358.32 541.793 357.827 541.793 357.16V351.08L553.233 351.1V362.1ZM561.275 362.2C558.995 362.2 557.315 361.68 556.235 360.64C555.168 359.587 554.635 358.207 554.635 356.5C554.635 354.833 555.168 353.48 556.235 352.44C557.315 351.4 558.995 350.88 561.275 350.88C562.808 350.88 564.088 351.133 565.115 351.64C566.155 352.133 566.922 352.807 567.415 353.66C567.908 354.5 568.155 355.447 568.155 356.5C568.155 358.22 567.582 359.6 566.435 360.64C565.302 361.68 563.582 362.2 561.275 362.2ZM561.355 358.8C562.222 358.8 562.868 358.593 563.295 358.18C563.722 357.767 563.935 357.213 563.935 356.52C563.935 355.867 563.722 355.333 563.295 354.92C562.868 354.493 562.222 354.28 561.355 354.28C560.488 354.28 559.855 354.487 559.455 354.9C559.055 355.313 558.855 355.853 558.855 356.52C558.855 357.213 559.055 357.767 559.455 358.18C559.855 358.593 560.488 358.8 561.355 358.8ZM582.162 351.08C582.095 353.107 582.062 354.927 582.062 356.54C582.062 358.153 582.095 359.973 582.162 362H577.822V358.36H573.902V362H569.562C569.628 360.48 569.662 358.66 569.662 356.54C569.662 354.42 569.628 352.6 569.562 351.08H573.902V354.72H577.822V351.08H582.162ZM590.701 353.52C592.688 353.52 594.074 353.913 594.861 354.7C595.648 355.473 596.041 356.553 596.041 357.94C596.041 359.233 595.648 360.233 594.861 360.94C594.088 361.633 592.701 361.98 590.701 361.98H588.041V362H583.761C583.828 360.48 583.861 358.66 583.861 356.54C583.861 354.42 583.828 352.6 583.761 351.08H588.041V353.52H590.701ZM601.201 351.08C601.134 352.573 601.101 354.387 601.101 356.52C601.101 358.64 601.134 360.453 601.201 361.96H596.821C596.861 359.28 596.881 357.027 596.881 355.2C596.881 353.373 596.861 352 596.821 351.08H601.201ZM589.501 358.8C590.448 358.8 591.108 358.727 591.481 358.58C591.854 358.433 592.041 358.147 592.041 357.72C592.041 357.293 591.848 357.007 591.461 356.86C591.074 356.7 590.421 356.62 589.501 356.62L588.041 356.64V358.8H589.501Z" fill="white"/>
<path d="M683.5 354V301.242C683.5 290.222 689.642 280.121 699.426 275.05L806.426 219.598C814.938 215.187 825.062 215.187 833.574 219.598L940.574 275.05C950.358 280.121 956.5 290.222 956.5 301.242V354V406.758C956.5 417.778 950.358 427.879 940.574 432.95L833.574 488.402C825.062 492.813 814.938 492.813 806.426 488.402L699.426 432.95C689.642 427.879 683.5 417.778 683.5 406.758V354Z" stroke="#FF5722"/>
<path d="M786.223 347.48L787.783 362H782.603L782.283 351.64L780.283 362H775.043L773.003 351.72L772.703 362H767.523L769.083 347.48H775.883L777.623 356.94L779.143 347.48H786.223ZM802.198 358.68C802.198 359.133 802.251 359.453 802.358 359.64C802.465 359.827 802.678 359.96 802.998 360.04L802.918 361.92C802.491 361.987 802.118 362.033 801.798 362.06C801.491 362.087 801.078 362.1 800.558 362.1C799.411 362.1 798.651 361.847 798.278 361.34C797.905 360.82 797.718 360.16 797.718 359.36V358.86C797.331 359.953 796.765 360.767 796.018 361.3C795.285 361.833 794.345 362.1 793.198 362.1C791.865 362.1 790.858 361.833 790.178 361.3C789.511 360.767 789.178 359.973 789.178 358.92C789.178 358.053 789.465 357.373 790.038 356.88C790.611 356.387 791.498 356.047 792.698 355.86C791.685 355.14 790.671 354.513 789.658 353.98C790.458 352.967 791.371 352.2 792.398 351.68C793.425 351.147 794.671 350.88 796.138 350.88C798.191 350.88 799.711 351.327 800.698 352.22C801.698 353.1 802.198 354.46 802.198 356.3V358.68ZM796.558 354.4C795.878 354.4 795.278 354.513 794.758 354.74C794.238 354.967 793.771 355.307 793.358 355.76C794.158 355.667 795.158 355.62 796.358 355.62C796.851 355.62 797.198 355.56 797.398 355.44C797.598 355.32 797.698 355.167 797.698 354.98C797.698 354.82 797.598 354.687 797.398 354.58C797.198 354.46 796.918 354.4 796.558 354.4ZM794.458 358.84C795.205 358.84 795.878 358.7 796.478 358.42C797.078 358.127 797.491 357.747 797.718 357.28V356.76C797.398 356.92 797.045 357.047 796.658 357.14C796.271 357.22 795.805 357.3 795.258 357.38L794.538 357.5C793.791 357.647 793.418 357.9 793.418 358.26C793.418 358.647 793.765 358.84 794.458 358.84ZM804.202 351.1H817.122V362.1H812.742V354.86H808.582V362.1H804.202V351.1ZM818.714 351.1H831.634V362.1H827.254V354.86H823.094V362.1H818.714V351.1ZM845.746 351.08C845.679 353.013 845.646 354.76 845.646 356.32C845.646 357.853 845.679 359.6 845.746 361.56H841.646L841.866 354.64L838.806 361.56H833.226C833.306 359.8 833.346 358.053 833.346 356.32C833.346 354.56 833.306 352.813 833.226 351.08H837.166L836.966 358.18L840.026 351.08H845.746ZM859.947 351.08C859.88 353.107 859.847 354.927 859.847 356.54C859.847 358.153 859.88 359.973 859.947 362H855.607V358.36H851.687V362H847.347C847.414 360.48 847.447 358.66 847.447 356.54C847.447 354.42 847.414 352.6 847.347 351.08H851.687V354.72H855.607V351.08H859.947ZM865.806 362H861.546C861.613 360.467 861.646 358.647 861.646 356.54C861.646 354.42 861.613 352.6 861.546 351.08H872.786C872.773 351.547 872.766 352.48 872.766 353.88V354.96H865.806V362Z" fill="white"/>
</svg>
